<?xml version="1.0" encoding="UTF-8"?>
<svg xmlns="http://www.w3.org/2000/svg" width="149" height="26" viewBox="0 0 149 26" fill="none">
  <g clip-path="url(#clip0_41_125)">
    <path d="M71.1737 24.2462H70.2092V18.6196H73.3534V19.4943H71.1737V20.927H73.2068V21.8017H71.1737V24.2462Z" fill="#432975"></path>
    <path d="M78.4788 22.2745C78.4788 23.4329 77.5851 24.3407 76.3795 24.3407C75.1738 24.3407 74.2801 23.4329 74.2801 22.2745C74.2801 21.1161 75.1738 20.2083 76.3795 20.2083C77.5851 20.2083 78.4788 21.1161 78.4788 22.2745ZM75.2069 22.2745C75.2069 22.9506 75.7222 23.4896 76.3795 23.4896C77.0367 23.4896 77.5521 22.9506 77.5521 22.2745C77.5521 21.5983 77.0367 21.0593 76.3795 21.0593C75.7222 21.0593 75.2069 21.5983 75.2069 22.2745Z" fill="#432975"></path>
    <path d="M82.0486 21.1965C82.0155 21.1824 81.9256 21.1634 81.8074 21.1634C81.1266 21.1634 80.7058 21.693 80.7058 22.5063V24.2415H79.779V20.3029H80.6963V20.979C80.8902 20.5204 81.3535 20.2225 81.8689 20.2225C81.9587 20.2225 82.0391 20.2367 82.0439 20.2462V21.1965H82.0486Z" fill="#432975"></path>
    <path d="M84.1526 24.2461H83.2212V20.3075H84.1526V20.8276C84.3607 20.4494 84.7484 20.2083 85.2779 20.2083C85.8406 20.2083 86.2567 20.4825 86.4742 20.9411C86.7011 20.5629 87.1267 20.2083 87.7839 20.2083C88.6917 20.2083 89.2165 20.8418 89.2165 21.8253V24.2461H88.2851V22.005C88.2851 21.4281 88.0203 21.0641 87.5286 21.0641C87.0368 21.0641 86.6917 21.4754 86.687 22.1184V24.2461H85.7555V22.0381C85.7555 21.4376 85.4907 21.0641 84.999 21.0641C84.5073 21.0641 84.1526 21.4896 84.1526 22.1563V24.2461Z" fill="#432975"></path>
    <path d="M94.2946 23.3194C93.9637 23.9388 93.3443 24.3407 92.5168 24.3407C91.3206 24.3407 90.4695 23.4896 90.4695 22.2745C90.4695 21.0593 91.33 20.2083 92.4695 20.2083C93.609 20.2083 94.4318 21.1019 94.4318 22.2745C94.4318 22.4258 94.4223 22.5298 94.4223 22.5582H91.3915C91.4293 23.1303 91.94 23.5558 92.5263 23.5558C93.0417 23.5558 93.3064 23.3052 93.5287 22.9601L94.2946 23.3194ZM93.5098 21.882C93.453 21.3572 93.018 20.9742 92.4554 20.9742C91.8927 20.9742 91.4577 21.4329 91.401 21.882H93.505H93.5098Z" fill="#432975"></path>
    <path d="M97.9637 21.1965C97.9306 21.1824 97.8455 21.1634 97.7226 21.1634C97.037 21.1634 96.6209 21.693 96.6209 22.5063V24.2415H95.6942V20.3029H96.6115V20.979C96.8053 20.5204 97.2687 20.2225 97.7841 20.2225C97.8739 20.2225 97.9543 20.2367 97.959 20.2462V21.1965H97.9637Z" fill="#432975"></path>
    <path d="M100.068 18.6196V24.2462H99.1363V18.6196H100.068Z" fill="#432975"></path>
    <path d="M101.434 25.9153V25.1209C101.548 25.1682 101.69 25.2013 101.846 25.2013C102.177 25.2013 102.385 25.0406 102.569 24.6008L102.739 24.1895L101.165 20.3076H102.153L103.231 23.1445L104.342 20.3076H105.297L103.472 24.719C103.084 25.6505 102.654 26.0287 101.987 26.0287C101.746 26.0287 101.571 25.972 101.439 25.9153H101.434Z" fill="#432975"></path>
    <path d="M109.756 18.6196V23.3478H111.732V24.2462H108.791V18.6196H109.756Z" fill="#432975"></path>
    <path d="M116.777 22.2745C116.777 23.4329 115.884 24.3407 114.678 24.3407C113.472 24.3407 112.579 23.4329 112.579 22.2745C112.579 21.1161 113.472 20.2083 114.678 20.2083C115.884 20.2083 116.777 21.1161 116.777 22.2745ZM113.505 22.2745C113.505 22.9506 114.021 23.4896 114.678 23.4896C115.335 23.4896 115.851 22.9506 115.851 22.2745C115.851 21.5983 115.335 21.0593 114.678 21.0593C114.021 21.0593 113.505 21.5983 113.505 22.2745Z" fill="#432975"></path>
    <path d="M120.706 20.3076H121.638V24.2462H120.706V23.7261C120.465 24.0949 120.054 24.3455 119.51 24.3455C118.579 24.3455 118.007 23.7025 118.007 22.6812V20.3123H118.938V22.5062C118.938 23.1162 119.25 23.485 119.789 23.485C120.328 23.485 120.706 23.0594 120.706 22.3833V20.3076Z" fill="#432975"></path>
    <path d="M124.134 24.2461H123.203V20.3075H124.134V20.8276C124.376 20.4588 124.787 20.2083 125.34 20.2083C126.295 20.2083 126.867 20.8513 126.867 21.8726V24.2414H125.936V22.0475C125.936 21.4376 125.624 21.0688 125.061 21.0688C124.498 21.0688 124.134 21.4943 124.134 22.1705V24.2461Z" fill="#432975"></path>
    <path d="M130.007 24.2036C128.938 24.2036 128.116 23.3525 128.116 22.2177C128.116 21.083 128.933 20.2083 130.007 20.2083C130.555 20.2083 131.038 20.4494 131.302 20.8371V20.3075H132.22V24.005C132.22 25.2249 131.449 26.0523 130.163 26.0523C129.288 26.0523 128.598 25.6646 128.257 25.0168L128.995 24.5487C129.236 24.9932 129.662 25.2391 130.158 25.2391C130.867 25.2391 131.298 24.771 131.298 24.0097V23.57C131.033 23.9483 130.541 24.2036 130.002 24.2036H130.007ZM130.201 21.0451C129.558 21.0451 129.061 21.57 129.061 22.2177C129.061 22.8655 129.558 23.3998 130.201 23.3998C130.844 23.3998 131.34 22.8797 131.34 22.2177C131.34 21.5558 130.844 21.0451 130.201 21.0451Z" fill="#432975"></path>
    <path d="M137.35 23.3194C137.019 23.9388 136.399 24.3407 135.572 24.3407C134.376 24.3407 133.525 23.4896 133.525 22.2745C133.525 21.0593 134.385 20.2083 135.525 20.2083C136.664 20.2083 137.487 21.1019 137.487 22.2745C137.487 22.4258 137.477 22.5298 137.477 22.5582H134.447C134.484 23.1303 134.995 23.5558 135.581 23.5558C136.097 23.5558 136.362 23.3052 136.584 22.9601L137.35 23.3194ZM136.56 21.882C136.503 21.3572 136.068 20.9742 135.506 20.9742C134.943 20.9742 134.508 21.4329 134.451 21.882H136.555H136.56Z" fill="#432975"></path>
    <path d="M138.754 22.0098V18.6196H139.719V21.9719C139.719 22.8419 140.154 23.4093 140.957 23.4093C141.761 23.4093 142.196 22.8372 142.196 21.9719V18.6196H143.161V22.0098C143.161 23.4093 142.357 24.3408 140.957 24.3408C139.558 24.3408 138.754 23.4093 138.754 22.0098Z" fill="#432975"></path>
    <path d="M145.652 20.3076V20.8702C145.941 20.4683 146.442 20.213 146.986 20.213C148.069 20.213 148.905 21.1066 148.905 22.2792C148.905 23.4518 148.069 24.3455 146.986 24.3455C146.437 24.3455 145.941 24.1138 145.652 23.7119V25.92H144.726V20.3076H145.652ZM146.792 21.0546C146.125 21.0546 145.61 21.5936 145.61 22.2745C145.61 22.9554 146.125 23.4944 146.792 23.4944C147.459 23.4944 147.974 22.9554 147.974 22.2745C147.974 21.5936 147.459 21.0546 146.792 21.0546Z" fill="#432975"></path>
    <path d="M110.602 14.648C109.519 14.648 108.517 14.4683 107.595 14.1042C106.678 13.7402 105.879 13.2295 105.207 12.5723C104.536 11.9151 104.011 11.1397 103.633 10.246C103.255 9.35239 103.065 8.37838 103.065 7.32399C103.065 6.2696 103.255 5.29086 103.633 4.40196C104.011 3.50833 104.541 2.7329 105.217 2.07568C105.898 1.41846 106.697 0.907816 107.614 0.543744C108.531 0.179672 109.534 0 110.621 0C111.709 0 112.645 0.174943 113.567 0.52483C114.489 0.874718 115.259 1.39955 115.893 2.09932L114.924 3.06861C114.333 2.4634 113.68 2.0284 112.966 1.76362C112.252 1.49411 111.486 1.36172 110.659 1.36172C109.794 1.36172 108.99 1.5083 108.252 1.80617C107.515 2.10405 106.867 2.52013 106.318 3.06388C105.77 3.60762 105.34 4.23647 105.032 4.95989C104.725 5.67858 104.569 6.47292 104.569 7.33818C104.569 8.20344 104.725 8.99305 105.032 9.71646C105.34 10.4352 105.77 11.0687 106.318 11.6077C106.867 12.1515 107.515 12.5676 108.252 12.8655C108.99 13.1633 109.794 13.3099 110.659 13.3099C111.524 13.3099 112.252 13.1728 112.966 12.8986C113.68 12.6243 114.333 12.1846 114.924 11.5794L115.893 12.5487C115.264 13.2484 114.484 13.778 113.567 14.1326C112.65 14.492 111.661 14.6669 110.602 14.6669V14.648Z" fill="#00D7B0"></path>
    <path d="M119.146 14.5251V0.113525H124.541C125.761 0.113525 126.811 0.307382 127.69 0.699823C128.569 1.09226 129.246 1.65492 129.718 2.38779C130.191 3.12067 130.428 4.00957 130.428 5.0545C130.428 6.09944 130.191 6.94579 129.718 7.67866C129.246 8.41153 128.569 8.97419 127.69 9.36663C126.811 9.75907 125.761 9.95292 124.541 9.95292H119.992L120.673 9.25315V14.5251H119.151H119.146ZM120.669 9.37608L119.988 8.6574H124.494C125.936 8.6574 127.028 8.34061 127.775 7.71176C128.522 7.0829 128.896 6.194 128.896 5.0545C128.896 3.915 128.522 3.01192 127.775 2.37834C127.028 1.74948 125.931 1.43269 124.494 1.43269H119.988L120.669 0.714007V9.38081V9.37608ZM128.986 14.5251L125.279 9.2957H126.924L130.65 14.5251H128.981H128.986Z" fill="#00D7B0"></path>
    <path d="M134.031 14.5251V0.113525H135.288L141.875 11.3525H141.217L147.742 0.113525H149V14.5251H147.539V2.40198H147.889L141.879 12.6953H141.161L135.109 2.40198H135.501V14.5251H134.04H134.031Z" fill="#00D7B0"></path>
    <path d="M5.86298 14.317C2.62888 14.317 0 11.6881 0 8.454C0 5.21991 2.62888 2.59102 5.86298 2.59102C7.74008 2.59102 9.49897 3.48938 10.6054 5.00241V0.0661621H11.7212V8.454C11.7212 11.6881 9.09235 14.317 5.85825 14.317H5.86298ZM5.86298 3.71161C3.24828 3.71161 1.11586 5.8393 1.11586 8.454C1.11586 11.0687 3.24355 13.1964 5.86298 13.1964C8.4824 13.1964 10.6054 11.0687 10.6054 8.454C10.6054 5.8393 8.47768 3.71161 5.86298 3.71161Z" fill="#432975"></path>
    <path d="M56.3886 14.317C53.1545 14.317 50.5256 11.6881 50.5256 8.454C50.5256 5.21991 53.1545 2.59102 56.3886 2.59102C58.2657 2.59102 60.0246 3.48938 61.131 5.00241V0.0661621H62.2516V8.454C62.2516 11.6881 59.6227 14.317 56.3886 14.317ZM56.3886 3.71161C53.7739 3.71161 51.6462 5.8393 51.6462 8.454C51.6462 11.0687 53.7739 13.1964 56.3886 13.1964C59.0033 13.1964 61.131 11.0687 61.131 8.454C61.131 5.8393 59.0033 3.71161 56.3886 3.71161Z" fill="#432975"></path>
    <path d="M85.2827 14.317C82.0486 14.317 79.4197 11.6881 79.4197 8.45404C79.4197 5.21995 82.0486 2.59106 85.2827 2.59106C88.5168 2.59106 91.1457 5.21995 91.1457 8.45404V9.02616H80.5876C80.8571 11.395 82.8571 13.2012 85.2827 13.2012C87.0794 13.2012 88.7532 12.1515 89.5475 10.5297L89.6374 10.3453H90.8478L90.6492 10.804C89.7177 12.9364 87.6137 14.317 85.2827 14.317ZM80.5876 7.88666H89.9825C89.7177 5.51783 87.713 3.71165 85.2874 3.71165C82.8855 3.70219 80.8618 5.49891 80.5923 7.88666H80.5876Z" fill="#432975"></path>
    <path d="M41.9439 14.317C38.7098 14.317 36.0809 11.6881 36.0809 8.45404C36.0809 5.21995 38.7098 2.59106 41.9439 2.59106C45.178 2.59106 47.8069 5.21995 47.8069 8.45404V9.02616H37.2488C37.5136 11.395 39.5184 13.2012 41.9439 13.2012C43.7406 13.2012 45.4144 12.1515 46.2088 10.5297L46.2986 10.3453H47.509L47.3104 10.804C46.379 12.9364 44.2749 14.317 41.9439 14.317ZM37.2441 7.88666H46.639C46.3695 5.49891 44.3411 3.70219 41.9439 3.71165C39.5136 3.71165 37.5136 5.52255 37.2488 7.88666H37.2441Z" fill="#432975"></path>
    <path d="M70.838 14.317C67.6039 14.317 64.975 11.6881 64.975 8.45404C64.975 5.21995 67.6039 2.59106 70.838 2.59106C73.1643 2.59579 75.2731 3.9717 76.214 6.10412L76.4126 6.56276H75.1785L75.0887 6.37836C74.2991 4.75658 72.63 3.71165 70.8333 3.71165C68.2186 3.71165 66.0909 5.83934 66.0909 8.45404C66.0909 11.0687 68.2186 13.2012 70.8333 13.2012C73.2636 13.2012 75.2636 11.395 75.5284 9.02616H70.507V7.88666H76.6821L76.6963 8.19872C76.8286 11.4423 74.3085 14.1799 71.065 14.3123C70.9893 14.3123 70.9089 14.317 70.8333 14.317H70.838Z" fill="#432975"></path>
    <path d="M18.0097 5.14429H30.1329C31.7121 5.14429 32.9887 6.42563 32.9887 8.00012C32.9887 9.57935 31.7074 10.856 30.1329 10.856H18.0097C16.4305 10.856 15.1539 9.57462 15.1539 8.00012C15.1539 6.4209 16.4353 5.14429 18.0097 5.14429Z" fill="url(#paint0_linear_41_125)"></path>
    <path d="M30.1329 10.856C31.7101 10.856 32.9887 9.57736 32.9887 8.00012C32.9887 6.42289 31.7101 5.14429 30.1329 5.14429C28.5556 5.14429 27.277 6.42289 27.277 8.00012C27.277 9.57736 28.5556 10.856 30.1329 10.856Z" fill="#00D7B0"></path>
  </g>
  <defs>
    <linearGradient id="paint0_linear_41_125" x1="15.1539" y1="8.00485" x2="32.9887" y2="8.00485" gradientUnits="userSpaceOnUse">
      <stop stop-color="#00D7B0" stop-opacity="0.9"></stop>
      <stop offset="0.2" stop-color="#00D7B0" stop-opacity="0.7"></stop>
      <stop offset="0.8" stop-color="#00D7B0" stop-opacity="0.1"></stop>
      <stop offset="1" stop-color="#00D7B0" stop-opacity="0.1"></stop>
    </linearGradient>
    <clipPath id="clip0_41_125">
      <rect width="149" height="26" fill="white"></rect>
    </clipPath>
  </defs>
</svg>